<svg width="60" height="56" viewBox="0 0 60 56" fill="none" xmlns="http://www.w3.org/2000/svg">
<path d="M59.5718 26.8983C59.5718 35.0004 59.5718 43.1024 59.5718 51.2044C59.5718 54.0422 58.0839 55.3071 54.7606 55.3071H4.32224C1.28539 55.3071 -0.149494 53.9882 0.0122947 51.4044C0.0732971 50.436 0.0388171 49.4631 0.0388171 48.4835V2.45294C0.0388171 0.904883 0.0388163 0.900391 1.81584 0.900391H57.8133C59.5426 0.900391 59.5453 0.90039 59.5453 2.36532C59.5453 10.5437 59.5453 18.7214 59.5453 26.8983H59.5718ZM44.9286 47.7151C44.5811 47.1646 44.3981 46.8366 44.178 46.5265C40.1598 40.7747 36.1602 35.0116 32.0942 29.2845C31.5293 28.4936 31.5638 27.9364 32.0942 27.1724C36.1469 21.3936 40.1492 15.5901 44.1621 9.7933C44.3955 9.45628 44.5917 9.09904 44.9577 8.50363C43.8571 8.50363 43.0136 8.40252 42.2286 8.53733C41.6265 8.63844 40.8547 8.91704 40.5656 9.32372C36.3202 15.3452 32.1163 21.3906 27.954 27.46C27.8267 27.6758 27.7571 27.9127 27.7502 28.1539C27.7433 28.3951 27.7993 28.6346 27.9142 28.8553C32.0836 34.9217 36.2937 40.9679 40.5444 46.9939C40.6631 47.1609 40.8195 47.3064 41.0048 47.4221C41.19 47.5378 41.4004 47.6213 41.6238 47.6679C42.6185 47.7803 43.6316 47.7151 44.9286 47.7151ZM39.3906 8.50363C38.5286 8.50363 38.0406 8.5598 37.5765 8.50363C35.9851 8.27895 35.1523 8.89233 34.3699 10.0494C30.4922 15.7833 26.5085 21.47 22.5195 27.15C21.989 27.9161 21.9307 28.4823 22.4956 29.2777C26.474 34.879 30.3808 40.5118 34.3115 46.1289C35.4944 47.8207 36.7808 48.2049 39.1891 47.5107C38.9848 47.1781 38.8045 46.8523 38.587 46.5423C34.5396 40.7612 30.5055 34.9712 26.4184 29.2103C25.9171 28.5026 25.9277 27.9903 26.4184 27.2938C30.4693 21.5135 34.4945 15.7204 38.4942 9.91463C38.7488 9.53941 38.9769 9.15296 39.3906 8.50363ZM50.4294 47.7196C49.9865 47.0456 49.7451 46.6591 49.4825 46.2816C45.5041 40.559 41.5257 34.8229 37.4943 29.1272C36.9638 28.379 36.985 27.842 37.4943 27.105C41.5363 21.3667 45.5253 15.6013 49.525 9.84273C49.7743 9.48099 49.9679 9.09229 50.3207 8.50812C49.1563 8.50812 48.2678 8.42049 47.4217 8.53957C46.8913 8.61372 46.2255 8.89907 45.9683 9.2653C41.7246 15.2928 37.5287 21.3435 33.3806 27.4174C33.2625 27.6187 33.1978 27.8394 33.1909 28.0641C33.1841 28.2888 33.2352 28.512 33.3408 28.7183C37.5544 34.8461 41.8069 40.9559 46.0982 47.0478C46.2972 47.3332 46.7136 47.6589 47.0637 47.6904C48.053 47.7758 49.0582 47.7196 50.4294 47.7196ZM8.8762 47.4949C11.9555 48.0319 12.4249 47.9039 13.6795 46.039C16.7968 41.3956 19.8858 36.7446 22.9465 32.0862C23.1348 31.7986 23.2754 31.3358 23.1348 31.0707C22.7449 30.345 22.1933 29.6821 21.509 28.716L8.8762 47.4949ZM21.4029 27.3926C21.8564 26.8332 22.0501 26.5433 22.2994 26.2962C23.3311 25.2784 23.2224 24.3617 22.4108 23.1933C19.3898 18.8525 16.5254 14.4307 13.5866 10.0517C12.4992 8.42948 11.5046 8.15312 9.04329 8.85638L21.4029 27.3926ZM24.1507 32.5985C20.7186 37.6561 17.2786 42.4283 14.56 47.6118C15.8862 47.3871 17.3794 48.3487 18.3342 46.9377C20.7372 43.3713 23.1587 39.813 25.5988 36.2631C25.8351 35.9682 25.9572 35.6184 25.9482 35.2621C25.9392 34.9057 25.7994 34.5606 25.5484 34.2746C25.1585 33.7803 24.7421 33.3018 24.1507 32.6008V32.5985ZM23.9491 23.5596C26.0709 21.807 26.2406 21.0881 24.9729 19.2007C22.9439 16.1855 20.8884 13.1838 18.8514 10.1708C17.6499 8.39129 16.9471 8.1711 14.2895 8.89457L23.9491 23.5596ZM19.6047 47.5084C22.615 48.0454 22.9916 47.9218 24.3204 46.0412C25.4741 44.4078 26.604 42.7631 27.7392 41.1207C29.1555 39.0738 29.0335 38.411 26.7552 36.5462L19.6047 47.5084ZM26.8188 19.8725C27.1671 19.3672 27.546 18.8775 27.954 18.4054C28.8293 17.5066 28.7974 16.7 28.0389 15.7092C26.6783 13.9274 25.4927 12.0514 24.2382 10.2112C23.0844 8.51711 22.1614 8.22727 19.7107 8.89233C22.0341 12.4805 24.3443 16.0529 26.8188 19.8703V19.8725Z" fill="white"/>
</svg>
