<svg width="1366" height="66" viewBox="0 0 1366 66" fill="none" xmlns="http://www.w3.org/2000/svg">
<g filter="url(#filter0_f_156_211)">
<path d="M1292.06 9.32227C1282.04 17.9044 1271.41 26.0916 1258.58 31.862C1251.48 35.0534 1244.05 37.3185 1235.87 36.8528C1227.79 36.3947 1221.31 33.3425 1216.61 27.638C1216.35 27.3292 1216.14 26.9977 1215.91 26.6687C1215.84 26.5091 1215.77 26.3451 1215.72 26.1777C1217.24 26.5877 1218.64 27.0458 1220.08 27.3318C1227.65 28.8503 1235.24 28.3795 1242.79 27.271C1255.31 25.4311 1267.09 21.688 1278.23 16.5225C1283.02 14.303 1287.56 11.6835 1292.06 9.32227Z" fill="white"/>
<path d="M1226.83 38.615C1227.09 38.6492 1227.34 38.6982 1227.58 38.7618C1234.14 41.0623 1240.75 40.6017 1247.32 38.901C1256.43 36.5473 1264.47 32.3917 1272.03 27.5653C1276.05 25.0066 1279.88 22.2506 1284.02 19.416C1282.32 21.2812 1280.8 22.9946 1279.21 24.6625C1273.76 30.4024 1267.89 35.7754 1260.91 40.1816C1256.56 42.9276 1251.89 45.1167 1246.53 46.0987C1237.28 47.7969 1229.93 43.3553 1226.83 38.615Z" fill="white"/>
<path d="M1235.58 4C1232.77 5.90573 1229.85 7.70769 1227.19 9.75008C1225.27 11.1973 1223.56 12.8306 1222.08 14.6169C1219.25 18.0917 1220.11 21.1667 1224.37 23.3635C1225.98 24.1987 1227.77 24.7833 1229.69 25.5653C1225.15 26.0968 1220.82 26.4233 1216.64 24.8061C1213.25 23.5204 1212.16 21.0376 1213.65 18.1322C1214.13 17.2041 1214.75 16.3362 1215.49 15.5533C1220.88 10.0361 1228.16 6.90541 1235.58 4Z" fill="white"/>
<path d="M1318.26 47.1819C1316.93 47.1819 1315.6 47.1414 1314.28 47.1946C1313.1 47.2401 1313.05 46.6656 1313.07 45.9089C1313.09 45.1522 1313.1 44.5853 1314.29 44.6131C1316.59 44.6662 1318.91 44.6258 1321.22 44.6258C1322.17 44.6258 1323.09 44.5093 1323.08 43.4692C1323.08 42.5201 1322.29 42.1885 1321.28 42.181C1319.95 42.181 1318.62 42.1961 1317.3 42.1455C1313.98 42.0215 1312.13 39.8121 1313.09 37.1015C1313.5 35.9272 1314.4 35.0414 1315.89 34.9782C1319.02 34.8415 1322.17 34.8213 1325.31 34.7757C1326.42 34.758 1326.17 35.5021 1326.16 36.0538C1326.16 36.6587 1326.33 37.3698 1325.13 37.347C1323.01 37.3091 1320.9 37.347 1318.79 37.347C1317.88 37.347 1316.86 37.347 1316.84 38.4125C1316.82 39.478 1317.69 39.7893 1318.82 39.802C1320.39 39.8197 1321.98 39.7792 1323.52 40.0019C1325.81 40.336 1326.92 41.6621 1326.79 43.578C1326.66 45.4938 1325.29 46.8276 1323.12 47.0579C1322.73 47.1125 1322.33 47.148 1321.94 47.1642C1320.71 47.1794 1319.48 47.1642 1318.25 47.1642L1318.26 47.1819Z" fill="white"/>
<path d="M1357.84 34.9495C1357.86 35.3772 1357.86 35.7923 1357.92 36.2149C1358.03 37.1033 1357.57 37.3994 1356.55 37.3665C1355.08 37.3159 1353.6 37.3412 1352.12 37.3943C1351.59 37.4146 1350.94 37.4728 1350.6 37.7537C1350.13 38.1738 1349.92 38.804 1349.6 39.3431C1350.12 39.4848 1350.64 39.7278 1351.16 39.748C1352.68 39.8037 1354.21 39.7784 1355.73 39.7708C1358.1 39.7708 1358.27 39.9403 1357.61 42.1979H1349.79C1349.56 43.767 1350.3 44.506 1352.2 44.6098C1353.68 44.6885 1355.16 44.6986 1356.64 44.6401C1357.74 44.5996 1357.95 45.0476 1357.94 45.8625C1357.93 46.6775 1357.88 47.2697 1356.63 47.2089C1355.21 47.1406 1353.78 47.2089 1352.35 47.1887C1346.26 47.09 1344.78 42.8863 1345.42 39.5076C1345.98 36.6098 1347.86 35.1697 1351.29 34.909C1353.14 34.7673 1355.02 34.8205 1356.88 34.8027C1357.21 34.8267 1357.53 34.8758 1357.84 34.9495Z" fill="white"/>
<path d="M1328.38 34.769C1329.75 34.769 1330.84 34.6754 1331.88 34.8171C1332.3 34.8728 1332.79 35.3891 1332.97 35.789C1333.88 37.7428 1334.68 39.732 1335.53 41.7061C1335.72 42.1338 1335.92 42.5539 1336.26 43.2904C1336.61 42.8256 1336.92 42.3448 1337.21 41.8503C1338.1 39.98 1339.04 38.1224 1339.8 36.2116C1340.25 35.0651 1340.98 34.5691 1342.37 34.7488C1342.98 34.8272 1343.61 34.7488 1344.52 34.7488C1343.55 36.7102 1342.71 38.4388 1341.84 40.1623C1340.83 42.1718 1339.77 44.1635 1338.81 46.1882C1338.46 46.9348 1337.95 47.2385 1337.04 47.1778C1336.35 47.1322 1335.65 47.2259 1334.97 47.1373C1334.59 47.0892 1334.08 46.8665 1333.95 46.6058C1332.1 42.7716 1330.31 38.907 1328.38 34.769Z" fill="white"/>
<path d="M1303.23 34.9345C1302.57 36.2632 1301.96 37.4932 1301.34 38.7307C1300.1 41.2034 1298.8 43.6608 1297.62 46.1562C1297.24 46.9484 1296.73 47.323 1295.76 47.1964C1295.66 47.1964 1295.56 47.1964 1295.46 47.1964C1292.6 47.1331 1293.14 47.6165 1291.99 45.0832C1290.66 42.1423 1289.25 39.2268 1287.87 36.2986C1287.68 35.8835 1287.51 35.4584 1287.22 34.7801C1288.56 34.7801 1289.68 34.6991 1290.77 34.8257C1291.13 34.8661 1291.55 35.3875 1291.72 35.7646C1292.65 37.7893 1293.5 39.8671 1294.38 41.9196C1294.56 42.3296 1294.79 42.7244 1295.17 43.471C1295.92 41.8994 1296.52 40.6694 1297.1 39.4369C1297.47 38.6574 1297.82 37.8677 1298.19 37.0882C1299.44 34.4562 1299.56 34.403 1303.23 34.9345Z" fill="white"/>
<path d="M1361.47 40.9244C1361.47 39.1983 1361.49 37.4698 1361.47 35.7437C1361.46 35.0452 1361.77 34.7314 1362.59 34.7618C1364.9 34.8326 1367.21 34.8048 1369.51 34.9744C1372.06 35.1616 1373.81 37.7811 1372.83 39.8133C1372.74 39.9263 1372.63 40.0214 1372.5 40.0919C1372.36 40.1624 1372.21 40.2064 1372.05 40.2208C1371.32 40.2714 1370.45 40.4283 1369.89 40.155C1369.43 39.9323 1369.32 39.1579 1369.11 38.6112C1368.71 37.5989 1366.71 36.8396 1365.7 37.4597C1365.4 37.6393 1365.3 38.186 1365.29 38.5656C1365.26 41.0028 1365.21 43.4451 1365.29 45.8798C1365.32 46.8668 1364.98 47.211 1363.82 47.2034C1361.48 47.1832 1361.49 47.2312 1361.51 45.2192C1361.51 43.7868 1361.51 42.3543 1361.51 40.9168L1361.47 40.9244Z" fill="white"/>
<path d="M1272.6 61.0287C1257.59 59.3126 1242.62 57.3055 1227.4 58.3128C1232.48 56.9967 1237.7 56.6625 1242.96 56.7942C1253.05 57.0625 1262.89 58.6495 1272.6 61.0287Z" fill="white"/>
<path d="M1263.8 40.3516C1260.72 44.1478 1257.45 47.691 1252.98 50.2674C1250.39 51.7606 1247.55 52.6388 1244.35 52.039C1242.62 51.71 1241.21 50.9305 1240.38 49.8498C1242.55 49.7461 1244.84 49.8498 1247.02 49.4879C1250.56 48.9134 1253.59 47.2557 1256.44 45.4537C1258.95 43.8593 1261.3 42.0928 1263.8 40.3516Z" fill="white"/>
<path d="M1309.51 41.0566C1309.51 42.6536 1309.45 44.2556 1309.54 45.8501C1309.59 46.9206 1309.11 47.3078 1307.92 47.1889C1307.53 47.1509 1307.07 47.2901 1306.76 47.1509C1306.34 46.9636 1305.75 46.5891 1305.75 46.2854C1305.68 42.754 1305.68 39.2218 1305.75 35.6887C1305.75 35.3825 1306.34 35.0028 1306.75 34.8105C1307.05 34.6662 1307.52 34.8105 1307.91 34.7624C1309.14 34.6409 1309.66 34.9649 1309.56 36.1468C1309.42 37.7741 1309.52 39.4192 1309.52 41.0566H1309.51Z" fill="white"/>
<path d="M1305.78 33.4794V30.0801C1307.05 30.1965 1308.42 30.0573 1309.38 30.5306C1309.83 30.7508 1309.86 32.6745 1309.41 32.9175C1308.49 33.4211 1307.11 33.3174 1305.78 33.4794Z" fill="white"/>
<path d="M1245.8 59.7714H1227.15C1233.38 59.096 1239.6 58.8962 1245.8 59.7714Z" fill="white"/>
<path d="M1258.12 57.0802L1244.33 55.6141C1248.95 55.2545 1253.41 55.9357 1258.12 57.0802Z" fill="white"/>
</g>
<g filter="url(#filter1_f_156_211)">
<path d="M31.2636 44.8808C29.3284 46.4315 27.3738 47.9743 25.458 49.5381C23.784 50.8943 22.1907 52.3162 20.4554 53.6145C19.8297 54.0823 18.8943 54.5476 18.0977 54.5502C5.05753 54.5791 -7.98263 54.516 -21.0196 54.5265C-22.5677 54.5265 -23.0064 54.1139 -22.9999 52.8681C-22.9397 39.2011 -22.93 25.5289 -22.9709 11.8514C-22.9709 10.6345 -22.529 10.306 -21.0712 10.3086C-0.893268 10.3401 19.2846 10.3401 39.4625 10.3086C40.9139 10.3086 41.3977 10.6161 41.3687 11.8488C41.2655 15.2103 41.2752 18.5771 41.3687 21.9387C41.4009 23.1056 41.0462 23.5156 39.527 23.5156C26.5965 23.5156 13.666 23.5735 0.732312 23.6155C-1.52544 23.6155 -1.52544 23.6155 -1.52544 25.4553C-1.52544 30.2598 -1.48352 35.0669 -1.55125 39.8713C-1.56737 41.033 -1.09647 41.3799 0.300114 41.3537C3.948 41.288 7.59912 41.3537 11.247 41.3169C11.8534 41.3169 12.6371 41.2354 13.0274 40.9305C15.2368 39.209 17.3526 37.4113 19.4781 35.6293C19.6387 35.4344 19.7697 35.2243 19.8684 35.0038C19.1524 34.9722 18.6008 34.9302 18.0493 34.9276C15.1465 34.9276 12.2436 34.8829 9.35694 34.9644C8.02809 35.0012 7.69265 34.5964 7.74425 33.6003C7.81521 31.9865 7.84424 30.3649 7.71846 28.7538C7.62815 27.5658 8.20871 27.2504 9.56014 27.253C17.1785 27.2688 24.8 27.2346 32.4183 27.2241C34.9405 27.2241 37.4628 27.2504 39.985 27.2241C40.9301 27.2241 41.3332 27.4685 41.33 28.2754C41.3149 36.6613 41.3225 45.0481 41.3526 53.4358C41.3526 54.2506 40.9462 54.5423 40.0366 54.537C37.7337 54.5239 35.4276 54.4976 33.1214 54.5002C32.0764 54.5002 31.7668 54.1139 31.7926 53.2834C31.8571 51.0125 31.8184 48.7391 31.8216 46.4683V45.0858L31.2636 44.8808Z" fill="white"/>
</g>
<g filter="url(#filter2_f_156_211)">
<path d="M95.084 31.1163V39.0983H93.1714V26.6719C96.7193 29.655 100.087 32.504 103.467 35.3451L103.883 35.2216V27.3789C105.441 27.0162 106.073 27.2422 106.047 28.5222C105.97 32.1334 106.021 35.7473 105.679 39.5346L95.5646 30.9849L95.084 31.1163Z" fill="white"/>
</g>
<g filter="url(#filter3_f_156_211)">
<path d="M63.0491 13.1195L61.6976 14.0999C58.5561 12.1182 55.8146 11.8632 53.5729 13.2878C51.5764 14.5546 50.9023 16.8359 51.928 18.8439C52.8472 20.6443 55.2275 21.8795 57.3821 21.6745C58.3906 21.5851 59.3333 21.2231 60.0599 20.6463C60.7866 20.0694 61.2552 19.3109 61.3912 18.4917C60.8139 18.4654 60.2527 18.4391 59.6882 18.4181L58.1013 18.3603C57.6337 17.309 57.7788 16.6861 59.3431 16.7833C60.0882 16.828 60.8429 16.7833 61.6009 16.7833C64.0554 16.7833 64.1167 16.849 63.5909 18.7545C62.4104 23.0018 56.7499 24.6235 52.3666 21.9321C49.9315 20.434 48.9381 18.3813 49.4993 15.9423C50.0928 13.3508 52.057 11.6609 55.1727 10.9486C58.2884 10.2363 60.7784 11.2403 63.0491 13.1195Z" fill="white"/>
</g>
<g filter="url(#filter4_f_156_211)">
<path d="M67.5291 39.4197C63.4071 39.4197 59.885 36.4839 59.9398 33.0829C59.9914 29.7477 63.5942 26.9407 67.8065 26.9512C71.8285 26.9512 75.3023 29.7687 75.3345 33.033C75.3546 33.874 75.1666 34.7096 74.7818 35.4902C74.3971 36.2707 73.8234 36.9801 73.095 37.5761C72.3666 38.1721 71.4984 38.6425 70.5422 38.9592C69.586 39.2759 68.5612 39.4325 67.5291 39.4197ZM67.5904 37.89C69.135 37.862 70.6053 37.3446 71.6893 36.4475C72.7733 35.5505 73.3855 34.3445 73.3961 33.0856C73.3703 30.7017 70.6416 28.4887 67.6968 28.4677C64.636 28.4467 62.0783 30.5966 62.0557 33.1986C62.0234 35.6823 64.6682 37.9111 67.5904 37.89Z" fill="white"/>
</g>
<g filter="url(#filter5_f_156_211)">
<path d="M109.843 39.0988V27.2716C113.416 27.1507 116.938 26.8353 119.519 29.3926C121.331 31.1956 121.557 34.2549 120.035 36.305C117.667 39.472 113.852 39.2749 109.843 39.0988ZM119.012 33.1458C119.011 32.4969 118.837 31.8559 118.502 31.2675C118.166 30.679 117.677 30.1571 117.069 29.7382C116.461 29.3192 115.749 29.0132 114.981 28.8414C114.213 28.6696 113.408 28.6362 112.623 28.7435C112.444 28.7875 112.281 28.8674 112.15 28.9757C112.019 29.084 111.923 29.2174 111.871 29.3637C111.816 31.8895 111.81 34.4152 111.871 36.941C111.928 37.103 112.035 37.2504 112.182 37.3692C112.329 37.4879 112.511 37.5739 112.71 37.6191C116.513 37.6796 118.838 36.0921 119.012 33.1405V33.1458Z" fill="white"/>
</g>
<g filter="url(#filter6_f_156_211)">
<path d="M71.5795 49.6506L75.795 54.4262C74.2791 54.7836 73.3244 54.5786 72.5406 53.5615C71.5117 52.2263 70.3151 50.9753 69.1895 49.6874L68.7411 49.832V54.1213C66.8059 54.647 66.5608 54.5287 66.5608 53.1226C66.5608 50.0265 66.5963 46.9304 66.535 43.8369C66.5156 42.9354 66.8382 42.5385 67.9767 42.6121C68.7734 42.6621 69.5894 42.6121 70.3829 42.6516C72.5697 42.7646 74.0824 43.6529 74.5339 45.0433C75.0242 46.5545 74.321 48.0632 72.6535 49.0566C72.36 49.2354 72.0471 49.3957 71.5795 49.6506ZM68.7734 48.0737C70.2087 48.1394 71.5859 48.1473 72.3213 47.1327C72.5058 46.8336 72.6078 46.5053 72.6201 46.1706C72.6323 45.836 72.5546 45.5033 72.3923 45.1957C71.6762 44.1444 70.2958 43.9999 68.7831 44.1208L68.7734 48.0737Z" fill="white"/>
</g>
<g filter="url(#filter7_f_156_211)">
<path d="M78.4786 27.1738L80.3977 27.2816C80.3977 28.6246 80.3719 29.8783 80.3977 31.132C80.4364 32.5697 80.4816 34.0099 80.6106 35.4423C80.7493 36.9352 81.962 37.8078 83.7747 37.8577C85.5873 37.9077 86.8388 37.0403 87 35.5159C87.1742 33.6919 87.1516 31.8574 87.1968 30.0281C87.2161 29.1608 87.1968 28.2935 87.1968 27.4603C89.0482 26.9977 89.2675 27.0871 89.2578 28.4117C89.2578 30.8087 89.2578 33.2109 89.0901 35.6027C88.932 37.8367 86.5453 39.4478 83.7263 39.4163C80.9557 39.3847 78.5818 37.6606 78.5044 35.4502C78.4044 32.7563 78.4786 30.057 78.4786 27.1738Z" fill="white"/>
</g>
<g filter="url(#filter8_f_156_211)">
<path d="M74.3864 17.2074C72.9801 17.2074 71.5964 17.2284 70.216 17.2074C69.2483 17.189 68.7807 17.4308 68.7387 18.3192C68.5968 21.4547 68.5613 21.41 72.4189 21.4731C73.222 21.4862 74.7702 20.8134 74.7444 22.2274C74.7218 23.4968 73.2575 22.8871 72.4576 22.9502C71.0255 23.0632 69.5548 22.9291 68.1162 22.9502C67.168 22.9633 66.768 22.6637 66.7745 21.8752C66.8003 18.6004 66.7938 15.3256 66.7745 12.0507C66.7745 11.3595 67.0486 10.9994 67.9743 10.9994C69.8515 11.0205 71.7319 10.9574 73.6058 11.031C74.0154 11.0494 74.3993 11.5041 74.796 11.7564C74.4122 12.0192 74.0574 12.4686 73.6413 12.5054C72.4221 12.6158 71.1803 12.558 69.945 12.5711C68.1904 12.5922 68.8839 13.6882 68.771 14.4109C68.6581 15.1337 68.8387 15.7251 70.016 15.6699C71.032 15.6278 72.0576 15.7093 73.0736 15.6488C74.2993 15.57 74.8057 15.9274 74.3864 17.2074Z" fill="white"/>
</g>
<g filter="url(#filter9_f_156_211)">
<path d="M86.6267 44.1663L85.5107 44.7866C84.3722 44.4449 83.4852 43.9613 82.624 43.9981C82.2275 44.0429 81.8488 44.1609 81.5168 44.3431C81.1848 44.5253 80.9082 44.7669 80.7082 45.0494C80.5082 45.4069 81.0533 46.2716 81.5661 46.6106C82.3305 47.1179 83.3562 47.3702 84.2754 47.7198C86.4977 48.5661 87.4814 50.0852 86.9525 51.8382C86.3784 53.7359 84.5625 54.8292 82.1144 54.753C79.9051 54.6847 78.1892 53.3705 77.8408 51.4046L79.5277 51.0051C79.8212 51.4545 80.0534 51.8382 80.3147 52.2088C80.9339 53.0867 81.9886 53.4757 83.0401 53.113C83.8077 52.8501 84.7302 52.1326 84.8334 51.536C84.9495 50.8789 84.4077 49.959 83.7787 49.4544C83.0466 48.8788 81.9048 48.6502 80.9436 48.2638C79.4567 47.6672 78.3633 46.8235 78.4182 45.3569C78.4569 44.0244 79.3664 43.1466 80.8017 42.6551C82.4466 42.0953 84.0561 42.182 85.4753 43.1492C85.884 43.4689 86.2685 43.8086 86.6267 44.1663V44.1663Z" fill="white"/>
</g>
<g filter="url(#filter10_f_156_211)">
<path d="M57.5397 33.38H55.282C52.6146 33.38 52.6178 33.38 52.6404 35.6114C52.6404 36.7363 52.6404 37.8612 52.6404 39.0571L51.0277 39.1753C50.9037 38.9261 50.816 38.6659 50.7664 38.4C50.7471 34.9833 50.7664 31.5902 50.731 28.1866C50.731 27.3692 51.1632 27.1353 52.0985 27.1668C53.5467 27.2141 55.0013 27.1799 56.4431 27.1905C57.1269 27.1905 57.9171 27.0774 57.8784 27.9789C57.8397 28.8804 57.0107 28.6938 56.356 28.7149C55.5523 28.7477 54.7471 28.7477 53.9434 28.7149C52.6759 28.6492 52.5178 29.2826 52.6533 30.0579C52.7726 30.778 52.1437 31.8714 53.8951 31.8583C54.7014 31.8583 55.5077 31.8951 56.3076 31.8583C57.5494 31.7952 58.0332 32.1737 57.5397 33.38Z" fill="white"/>
</g>
<g filter="url(#filter11_f_156_211)">
<path d="M57.6235 48.6706C56.4753 48.6706 55.4045 48.7127 54.3401 48.6706C53.1177 48.6128 52.5726 48.9624 52.6468 50.0189C52.7231 51.2406 52.7091 52.465 52.6049 53.6854C52.5791 53.9955 52.0985 54.2767 51.8243 54.5737C51.4534 54.3109 50.7664 54.027 50.76 53.7458C50.6826 50.2958 50.6826 46.8449 50.76 43.3931C50.76 43.1302 51.405 42.6887 51.7566 42.6729C53.4755 42.5963 55.1983 42.5963 56.9172 42.6729C57.2655 42.6887 57.5622 43.1513 57.9074 43.4088C57.5622 43.6454 57.2429 44.0317 56.8591 44.0843C56.0601 44.1698 55.2517 44.1804 54.4498 44.1158C53.3467 44.0607 52.5404 44.1684 52.6726 45.338C52.7726 46.2605 52.3501 47.388 54.2853 47.254C54.9304 47.2119 55.5754 47.3066 56.2205 47.2277C57.5494 47.0595 58.0041 47.4879 57.6235 48.6706Z" fill="white"/>
</g>
<g filter="url(#filter12_f_156_211)">
<path d="M85.0983 10.9963V12.3893C84.9371 12.4629 84.8468 12.5365 84.7532 12.5391C81.8891 12.618 81.8859 12.6154 81.8859 14.9256C81.8859 17.1491 81.8343 19.3726 81.9214 21.5909C81.9697 22.7894 81.4859 23.2073 79.8313 22.7841C79.8313 21.3123 79.8313 19.7984 79.8313 18.2871C79.8313 17.1544 79.8475 16.0216 79.8475 14.8888C79.8475 12.8309 79.8475 12.8572 77.3607 12.5076C76.9898 12.455 76.7156 12.0135 76.377 11.7507C76.6995 11.4878 77.022 11.0384 77.3768 11.0279C79.8829 10.9753 82.3923 10.9963 85.0983 10.9963Z" fill="white"/>
</g>
<g filter="url(#filter13_f_156_211)">
<path d="M88.7686 42.6367C91.3844 42.6367 94.0421 42.6157 96.6998 42.6709C96.9707 42.6709 97.3771 43.1361 97.4352 43.4226C97.4707 43.6066 97.0159 43.9482 96.6998 44.0534C96.3385 44.1367 95.9578 44.1476 95.5903 44.0849C94.5453 43.9956 94.1711 44.3477 94.184 45.2098C94.226 47.867 94.184 50.5268 94.184 53.1866C94.184 53.7885 94.3679 54.435 93.1648 54.4613C91.9617 54.4876 92.094 53.8489 92.094 53.2392C92.094 50.6109 92.0424 48.0037 92.1166 45.3885C92.1488 44.3583 91.7586 43.9509 90.4749 44.1007C89.3653 44.2321 88.3751 44.1454 88.7686 42.6367Z" fill="white"/>
</g>
<g filter="url(#filter14_f_156_211)">
<path d="M62.7194 48.5134C62.7194 50.2113 62.7646 51.9091 62.6775 53.6017C62.6314 53.8026 62.5264 53.9914 62.3714 54.152C62.2164 54.3127 62.016 54.4404 61.7873 54.5242C60.91 54.7187 60.7616 54.1694 60.7648 53.5781C60.7648 50.2717 60.739 46.9627 60.8132 43.659C60.8132 43.3147 61.4228 42.9783 61.7518 42.6366C62.0743 42.9862 62.6517 43.3252 62.6743 43.6879C62.7775 45.2911 62.7194 46.9049 62.7194 48.5134Z" fill="white"/>
</g>
<path d="M794.572 30.8983C794.572 39.0004 794.572 47.1024 794.572 55.2044C794.572 58.0422 793.084 59.3071 789.761 59.3071H739.322C736.285 59.3071 734.851 57.9882 735.012 55.4044C735.073 54.436 735.039 53.4631 735.039 52.4835V6.45294C735.039 4.90488 735.039 4.90039 736.816 4.90039H792.813C794.543 4.90039 794.545 4.90039 794.545 6.36532C794.545 14.5437 794.545 22.7214 794.545 30.8983H794.572ZM779.929 51.7151C779.581 51.1646 779.398 50.8366 779.178 50.5265C775.16 44.7747 771.16 39.0116 767.094 33.2845C766.529 32.4936 766.564 31.9364 767.094 31.1724C771.147 25.3936 775.149 19.5901 779.162 13.7933C779.395 13.4563 779.592 13.099 779.958 12.5036C778.857 12.5036 778.014 12.4025 777.229 12.5373C776.626 12.6384 775.855 12.917 775.566 13.3237C771.32 19.3452 767.116 25.3906 762.954 31.46C762.827 31.6758 762.757 31.9127 762.75 32.1539C762.743 32.3951 762.799 32.6346 762.914 32.8553C767.084 38.9217 771.294 44.9679 775.544 50.9939C775.663 51.1609 775.82 51.3064 776.005 51.4221C776.19 51.5378 776.4 51.6213 776.624 51.6679C777.618 51.7803 778.632 51.7151 779.929 51.7151ZM774.391 12.5036C773.529 12.5036 773.041 12.5598 772.576 12.5036C770.985 12.2789 770.152 12.8923 769.37 14.0494C765.492 19.7833 761.509 25.47 757.52 31.15C756.989 31.9161 756.931 32.4823 757.496 33.2777C761.474 38.879 765.381 44.5118 769.312 50.1289C770.494 51.8207 771.781 52.2049 774.189 51.5107C773.985 51.1781 773.804 50.8523 773.587 50.5423C769.54 44.7612 765.506 38.9712 761.418 33.2103C760.917 32.5026 760.928 31.9903 761.418 31.2938C765.469 25.5135 769.495 19.7204 773.494 13.9146C773.749 13.5394 773.977 13.153 774.391 12.5036ZM785.429 51.7196C784.986 51.0456 784.745 50.6591 784.483 50.2816C780.504 44.559 776.526 38.8229 772.494 33.1272C771.964 32.379 771.985 31.842 772.494 31.105C776.536 25.3667 780.525 19.6013 784.525 13.8427C784.774 13.481 784.968 13.0923 785.321 12.5081C784.156 12.5081 783.268 12.4205 782.422 12.5396C781.891 12.6137 781.226 12.8991 780.968 13.2653C776.725 19.2928 772.529 25.3434 768.381 31.4174C768.263 31.6187 768.198 31.8394 768.191 32.0641C768.184 32.2888 768.235 32.512 768.341 32.7183C772.554 38.8461 776.807 44.9559 781.098 51.0478C781.297 51.3332 781.714 51.6589 782.064 51.6904C783.053 51.7758 784.058 51.7196 785.429 51.7196V51.7196ZM743.876 51.4949C746.955 52.0319 747.425 51.9038 748.679 50.039C751.797 45.3956 754.886 40.7446 757.947 36.0862C758.135 35.7986 758.275 35.3358 758.135 35.0707C757.745 34.345 757.193 33.6821 756.509 32.716L743.876 51.4949ZM756.403 31.3926C756.856 30.8332 757.05 30.5433 757.299 30.2962C758.331 29.2784 758.222 28.3617 757.411 27.1933C754.39 22.8525 751.525 18.4307 748.587 14.0517C747.499 12.4295 746.505 12.1531 744.043 12.8564L756.403 31.3926ZM759.151 36.5985C755.719 41.6561 752.279 46.4284 749.56 51.6118C750.886 51.3871 752.379 52.3487 753.334 50.9377C755.737 47.3713 758.159 43.8131 760.599 40.2631C760.835 39.9682 760.957 39.6184 760.948 39.2621C760.939 38.9057 760.799 38.5606 760.548 38.2746C760.159 37.7803 759.742 37.3018 759.151 36.6008V36.5985ZM758.949 27.5596C761.071 25.807 761.241 25.0881 759.973 23.2007C757.944 20.1855 755.888 17.1838 753.851 14.1708C752.65 12.3913 751.947 12.1711 749.289 12.8946L758.949 27.5596ZM754.605 51.5084C757.615 52.0454 757.992 51.9218 759.32 50.0412C760.474 48.4078 761.604 46.7631 762.739 45.1207C764.155 43.0738 764.033 42.411 761.755 40.5462L754.605 51.5084ZM761.819 23.8725C762.167 23.3672 762.546 22.8775 762.954 22.4054C763.829 21.5066 763.797 20.7 763.039 19.7092C761.678 17.9274 760.493 16.0514 759.238 14.2112C758.084 12.5171 757.161 12.2273 754.711 12.8923C757.034 16.4805 759.344 20.0529 761.819 23.8703V23.8725Z" fill="white"/>
<path d="M835.069 30.3693V36.1256C835.069 37.7411 834.979 37.7973 832.913 37.4355V26.6014C834.024 26.2801 834.799 26.4958 835.518 27.3181C837.008 29.0302 838.621 30.6681 840.191 32.3285C840.456 32.6026 840.764 32.843 841.339 33.353V26.5384H843.53V37.8399C842.764 37.4894 842.066 37.3479 841.705 36.9772C839.849 35.0719 838.098 33.1059 836.303 31.1669C836.019 30.8613 835.703 30.5782 835.404 30.2839L835.069 30.3693Z" fill="white"/>
<path d="M860.996 37.5264V26.3867C863.322 26.4788 865.581 26.3867 867.762 26.6968C870.894 27.1461 872.628 29.3593 872.517 32.3138C872.411 35.0819 870.477 37.1872 867.414 37.4815C865.332 37.686 863.21 37.5264 860.996 37.5264ZM863.163 35.693C864.452 35.693 865.587 35.7515 866.711 35.693C868.759 35.5627 870.13 34.2596 870.289 32.397C870.456 30.4557 869.228 28.7751 867.281 28.4426C866.197 28.2959 865.098 28.2447 864.001 28.2898C863.719 28.2898 863.205 28.6111 863.205 28.7931C863.144 31.0376 863.163 33.2979 863.163 35.6886V35.693Z" fill="white"/>
<path d="M816.882 37.4896C817.034 37.1481 817.148 36.8358 817.307 36.5392C818.898 33.5105 820.537 30.493 822.081 27.4486C822.473 26.6779 822.98 26.4151 823.961 26.424C824.89 26.424 825.37 26.6734 825.744 27.4014C827.316 30.4796 828.961 33.5307 830.576 36.5932C830.714 36.8583 830.817 37.1391 830.939 37.4177C828.929 37.8334 828.714 37.7817 827.953 36.3707C827.637 35.7843 827.239 35.5192 826.454 35.5371C824.781 35.5776 823.105 35.5686 821.431 35.5259C820.667 35.5057 820.105 35.6854 819.93 36.3303C819.521 37.784 818.32 37.7503 816.882 37.4896ZM826.56 33.6588L824.102 28.9517L823.72 28.9854C822.959 30.493 822.195 32.0007 821.357 33.6588H826.56Z" fill="white"/>
<path d="M859.125 37.477C857.613 37.7803 856.507 37.7017 856.011 36.2997C855.892 35.9626 855.128 35.6032 854.638 35.5762C852.967 35.4863 851.285 35.5762 849.598 35.5245C848.829 35.5065 848.272 35.7043 848.084 36.3334C847.654 37.6702 846.577 37.8118 845.108 37.477C845.173 37.2074 845.262 36.9423 845.373 36.6839C847.007 33.5833 848.683 30.4984 850.272 27.3798C850.654 26.6249 851.171 26.4316 852.075 26.4316C852.98 26.4316 853.5 26.6136 853.884 27.3663C855.476 30.5119 857.173 33.6417 858.825 36.7782C858.945 36.9782 859.011 37.1917 859.125 37.477ZM854.704 33.6574C853.807 31.9206 853.028 30.4085 852.245 28.8964L851.882 28.9346L849.495 33.6529L854.704 33.6574Z" fill="white"/>
<path d="M885.947 26.6663C885.947 29.0614 886.088 31.4183 885.91 33.7573C885.716 36.3299 883.478 37.9049 880.385 37.9251C877.293 37.9453 874.961 36.4445 874.699 33.9325C874.468 31.7082 874.566 29.4591 874.503 27.2235C874.481 26.4776 875.073 26.5248 875.664 26.5068C876.335 26.4866 876.744 26.6101 876.725 27.2999C876.697 29.2052 876.704 31.1098 876.746 33.0136C876.791 34.9975 878.139 36.1793 880.287 36.1906C882.356 36.1906 883.666 35.029 883.714 33.0675C883.756 31.3869 883.735 29.6973 883.74 28.0256C883.754 26.3944 883.846 26.3315 885.947 26.6663Z" fill="white"/>
<path d="M816.163 37.4557C814.429 37.8916 813.331 37.4894 812.54 36.2334C811.936 35.2673 811.095 34.4045 810.228 33.3305C809.358 34.4068 808.53 35.2426 807.952 36.1862C807.186 37.4422 806.119 37.8961 804.324 37.4624C805.223 36.339 806.093 35.2538 806.976 34.1686C808.745 31.9779 808.745 31.9779 806.947 29.7581C806.151 28.774 805.36 27.7869 804.573 26.7968C804.531 26.7451 804.557 26.6552 804.549 26.5384C805.912 26.3137 807.061 26.3452 807.817 27.6236C808.421 28.6437 809.297 29.5491 810.238 30.7422C811.108 29.6345 811.941 28.7358 812.559 27.7427C813.326 26.5092 814.416 26.1901 816.079 26.6058C814.856 28.1089 813.718 29.6008 812.458 31.0141C811.811 31.7398 811.848 32.2633 812.477 32.9733C813.734 34.4 814.89 35.8964 816.163 37.4557Z" fill="white"/>
<path d="M809.064 48.5723L805.194 43.8332L804.781 43.9433V51.0081H804.396V42.6378L804.818 42.4715C806.181 44.1568 807.542 45.8421 809.061 47.7139L813.289 42.4355L813.748 42.6288V51.0575H813.379V43.8175L812.965 43.7186L809.064 48.5723Z" fill="white"/>
<path d="M834.163 51.2834C833.2 50.4003 832.144 49.5734 831.293 48.6184C830.351 47.5578 829.113 47.8544 827.924 47.9016C827.747 47.9016 827.474 48.3847 827.45 48.6566C827.386 49.4386 827.428 50.2296 827.428 51.0115L827.073 51.0228C826.997 50.7981 826.947 50.5679 826.922 50.3352C826.909 48.0994 826.935 45.8635 826.903 43.6277C826.903 42.8772 827.169 42.5379 828.115 42.5851C829.211 42.6368 830.319 42.5379 831.415 42.5986C833.439 42.7132 834.579 43.6547 834.598 45.131C834.619 46.6725 833.537 47.6522 831.245 47.9128L834.531 50.9801L834.163 51.2834ZM829.829 42.9311V42.9873C829.479 42.9873 829.123 43.012 828.768 42.9873C827.752 42.9019 827.402 43.2345 827.397 44.1288C827.397 47.6522 827.452 47.7241 831.64 47.3376C833.075 47.205 833.852 46.5691 833.95 45.4478C834.059 44.2187 833.317 43.3288 831.913 43.0996C831.222 43.0133 830.527 42.9571 829.829 42.9311Z" fill="white"/>
<path d="M844.821 42.6484H851.516C851.516 42.7563 851.529 42.8619 851.534 42.9675H849.184C848.259 42.9675 847.328 42.99 846.407 42.9675C845.675 42.9495 845.431 43.2102 845.392 43.8281C845.206 46.6504 845.187 46.6482 848.558 46.6482H851.274V47.0751C850.147 47.0751 849.02 47.0751 847.893 47.0751C844.917 47.0886 845.461 46.9336 845.405 49.1469C845.405 49.6233 845.405 50.0997 845.405 50.7671H851.667V51.2165C850.208 51.2165 848.749 51.2165 847.291 51.2165C844.442 51.1895 844.843 51.5468 844.819 49.1649C844.805 47.0077 844.821 44.855 844.821 42.6484Z" fill="white"/>
<path d="M881.826 46.8492C882.129 46.8245 882.428 46.7818 882.728 46.775C885.839 46.7054 886.102 46.9391 885.662 49.5591C885.564 49.909 885.321 50.2176 884.977 50.4288C882.855 51.7613 879.487 51.4804 877.864 49.8715C876.164 48.1884 876.273 45.2718 878.081 43.7101C879.845 42.1888 883.211 42.0832 885.243 43.4854C885.298 43.5236 885.298 43.6157 885.375 43.8112C884.656 43.5298 883.92 43.28 883.171 43.0629C880.498 42.4158 877.904 43.6584 877.31 45.8358C876.639 48.2941 878.259 50.5254 881.126 50.7681C882.232 50.8602 883.513 50.5636 884.516 50.1366C885.699 49.64 885.022 48.5255 885.025 47.6918C885.025 47.5233 884.105 47.2829 883.582 47.2042C882.999 47.1547 882.411 47.148 881.826 47.184C881.821 47.0739 881.824 46.9638 881.826 46.8492Z" fill="white"/>
<path d="M874.171 49.4975V42.7698H874.513V51.1176L867.694 44.1854L867.318 44.2529V51.0075H866.922V42.6035L873.792 49.5919L874.171 49.4975Z" fill="white"/>
<path d="M824.765 51.1617C824.619 51.0022 824.388 50.8584 824.341 50.6786C823.908 49.1214 822.667 48.7686 820.988 49.0023C820.636 49.0388 820.279 49.0388 819.927 49.0023C818.206 48.89 816.522 48.8113 816.158 50.7775C816.132 50.9123 815.877 51.0157 815.482 51.0157C816.063 49.8697 816.628 48.7169 817.224 47.5754C817.994 46.1126 818.792 44.6543 819.566 43.2004C819.882 42.6049 820.362 42.2117 820.813 43.0004C822.298 45.6407 823.677 48.3237 825.096 50.991L824.765 51.1617ZM817.365 48.4653H823.16L820.455 43.2611H820.062C819.198 44.9419 818.325 46.6159 817.365 48.4653V48.4653Z" fill="white"/>
<path d="M837.355 46.392L842.312 42.4844L842.628 42.7675L837.748 46.6976L843.028 50.9558L842.742 51.2322L837.034 46.8257V50.9872H836.658V42.799L836.923 42.7877V46.2415L837.355 46.392Z" fill="white"/>
<path d="M861.674 42.9711C860.9 42.9711 860.123 43.0071 859.351 42.9711C858.412 42.9149 858.133 43.2632 858.147 44.0227C858.184 46.1485 858.147 48.2764 858.147 50.4044C858.129 50.6118 858.092 50.8177 858.035 51.0201H857.611C857.611 49.946 857.611 48.8719 857.611 47.7978C857.611 46.4923 857.627 45.1867 857.659 43.8812C857.677 43.2071 857.351 42.9352 856.553 42.9711C855.754 43.0071 854.916 42.9711 854.097 42.9711C854.097 42.8812 854.097 42.7891 854.097 42.6992H861.672C861.666 42.7891 861.672 42.879 861.674 42.9711Z" fill="white"/>
<path d="M863.741 51.0077V42.8711H864.048V50.9852L863.741 51.0077Z" fill="white"/>
<path d="M262.446 28.9428H265.985C266.07 29.258 266.15 29.5634 266.289 30.0874C267.648 28.996 269.187 28.4443 270.975 28.5546C272.763 28.665 274.202 29.3092 275.406 30.5386C276.776 29.2324 278.395 28.5349 280.4 28.5408C283.793 28.5408 286.074 30.3436 286.147 33.1589C286.208 35.5232 286.147 37.8736 286.192 40.2319C286.204 40.8742 285.928 41.0968 285.168 41.0869C281.834 41.0416 282.42 41.3904 282.368 38.8429C282.337 37.3042 282.403 35.7655 282.33 34.2288C282.245 32.4733 281.129 31.5237 279.341 31.5631C277.552 31.6025 276.3 32.6723 276.274 34.3213C276.234 36.2915 276.236 38.2499 276.274 40.2142C276.286 40.8466 276.038 41.0889 275.259 41.0771C271.786 41.0219 272.48 41.4317 272.416 38.7956C272.381 37.2904 272.433 35.7832 272.386 34.278C272.331 32.5305 271.258 31.5631 269.465 31.5611C267.578 31.5611 266.353 32.6132 266.318 34.3608C266.28 36.2915 266.28 38.2236 266.318 40.157C266.33 40.8269 266.082 41.0692 265.247 41.083C262.46 41.1303 262.46 41.1559 262.463 38.8587V28.9428H262.446Z" fill="white"/>
<path d="M292.472 39.9859C292.52 41.0262 291.835 41.168 290.951 41.0833C290.677 41.0557 290.401 41.0557 290.127 41.0833C289.021 41.2133 288.62 40.8863 288.646 39.9012C288.721 37.1883 288.672 34.4714 288.672 31.7565C288.672 29.5006 288.702 27.2428 288.655 24.9869C288.641 24.2146 288.867 23.862 289.894 23.8836C292.991 23.9486 292.418 23.6433 292.47 26.0075C292.494 27.1522 292.47 28.2968 292.489 29.4415C292.514 29.5905 292.555 29.7374 292.609 29.8809C294.758 28.5234 297.066 28.1392 299.552 28.9943C300.982 29.4846 302.165 30.3728 302.9 31.5082C304.705 34.1798 304.12 37.8542 301.579 39.8578C299.135 41.7906 296.077 41.8674 292.472 39.9859ZM296.308 38.3999C298.451 38.3822 300.095 36.9006 300.107 34.9797C300.107 33.0095 298.455 31.5496 296.202 31.5516C293.999 31.5516 292.338 33.0509 292.347 35.025C292.357 36.9991 294.029 38.4236 296.308 38.3999Z" fill="white"/>
<path d="M233.591 23.8437V29.9513C234.063 29.709 234.32 29.5907 234.563 29.4509C236.523 28.322 238.595 28.2372 240.697 29.0962C242.707 29.9198 243.528 31.3639 243.528 33.1844C243.528 35.4776 243.5 37.769 243.542 40.0603C243.556 40.8129 243.287 41.1104 242.339 41.0887C239.192 41.0178 239.796 41.3724 239.744 38.9944C239.708 37.4183 239.744 35.8421 239.729 34.2798C239.706 32.6347 238.72 31.6614 237.047 31.5708C235.23 31.4742 233.843 32.3451 233.695 33.9645C233.538 35.9569 233.502 37.9546 233.588 39.95C233.617 40.8858 233.225 41.1202 232.173 41.0907C229.394 41.0139 229.814 41.3409 229.814 39.089C229.79 34.4709 229.814 29.8548 229.814 25.2366C229.814 23.8319 229.814 23.8319 231.559 23.8319C232.175 23.8437 232.796 23.8437 233.591 23.8437Z" fill="white"/>
<path d="M360.989 41.0727C359.46 41.0727 358.203 41.1299 356.962 41.0392C356.563 41.0116 356.091 40.6452 355.848 40.3418C354.652 38.8109 353.522 37.2466 352.309 35.5996C351.198 36.3305 350.186 36.9353 350.351 38.2278C350.436 38.9075 350.332 39.6069 350.372 40.2866C350.408 40.8915 350.092 41.0904 349.398 41.0747C345.956 41.0353 346.626 41.3939 346.602 38.8641C346.56 34.2835 346.617 29.7028 346.569 25.1221C346.569 24.2099 346.822 23.8396 347.999 23.873C350.8 23.9558 350.332 23.676 350.358 25.8885C350.384 27.9159 350.358 29.9451 350.358 31.9725V33.3004C350.702 33.0974 351.032 32.8783 351.347 32.6443C352.484 31.6493 353.633 30.6623 354.725 29.6339C355.287 29.1039 355.879 28.8261 356.757 28.8812C357.799 28.9443 358.852 28.895 360.203 28.895C358.599 30.2742 357.226 31.5173 355.77 32.6837C355.1 33.2215 355.063 33.6235 355.591 34.2598C357.181 36.165 358.698 38.1155 360.239 40.0502C360.458 40.3142 360.647 40.59 360.989 41.0727Z" fill="white"/>
<path d="M325.796 33.1772C325.686 32.0916 325.027 31.6227 324.022 31.404C322.548 31.075 321.142 31.2917 319.776 31.7705C319.384 31.9084 318.999 32.0601 318.49 32.2512L317.15 30.216C319.672 28.301 324.806 27.9798 327.488 29.5225C328.837 30.2987 329.491 31.4237 329.751 32.7299C329.81 33.1219 329.831 33.5172 329.814 33.912C329.814 36.2309 329.814 38.5518 329.814 40.9574H326.221C326.167 40.6599 326.115 40.3782 326.037 39.9723C325.719 40.1457 325.473 40.2659 325.244 40.4058C323.289 41.5879 321.184 41.7553 319.011 40.9357C317.223 40.2639 316.355 39.0542 316.416 37.4071C316.477 35.7601 317.482 34.6331 319.278 34.1524C320.719 33.7584 322.274 33.6756 323.779 33.4589C324.421 33.3486 325.072 33.2698 325.796 33.1772ZM325.796 35.2715C324.499 35.4429 323.201 35.567 321.906 35.7955C320.726 36.0044 320.186 36.6664 320.292 37.547C320.391 38.3686 321.191 38.9005 322.376 38.9262C324.723 39.001 326.176 37.5194 325.808 35.2715H325.796Z" fill="white"/>
<path d="M259.75 28.8972V30.1719C259.75 33.4759 259.724 36.7819 259.771 40.0859C259.771 40.8739 259.478 41.1655 258.563 41.0847C258.171 41.052 257.775 41.052 257.383 41.0847C256.51 41.1576 255.824 41.0335 255.838 40.3479C254.458 40.7025 253.127 41.2758 251.756 41.3527C248.529 41.5339 246.167 39.8021 246.002 37.1286C245.84 34.5181 245.967 31.8958 245.974 29.2774C246.005 29.1642 246.058 29.0558 246.13 28.9563H249.725C249.751 29.3228 249.791 29.6715 249.794 30.0182C249.794 31.9155 249.775 33.8148 249.808 35.7121C249.836 37.3394 250.865 38.3166 252.537 38.3777C254.425 38.4447 255.727 37.5896 255.84 35.9603C255.987 33.9724 255.965 31.9727 255.921 29.9788C255.902 29.1119 256.234 28.7967 257.27 28.8854C258.049 28.9504 258.834 28.8972 259.75 28.8972Z" fill="white"/>
<path d="M314.841 28.8984C315.242 31.7236 315.242 31.767 312.139 31.7098C310.971 31.6882 310.533 31.9246 310.622 32.951C310.736 34.2533 310.622 35.5655 310.655 36.8737C310.684 38.0853 311.476 38.6468 312.885 38.3001C313.843 38.0656 314.251 38.2666 314.508 39.0074C314.68 39.5019 314.963 39.9728 315.246 40.5559C313.201 41.3617 311.174 41.7755 309.101 40.9992C307.213 40.2919 306.68 38.8793 306.784 37.2559C306.812 36.8303 306.784 36.4048 306.784 35.9792C306.784 35.0631 306.741 34.1469 306.796 33.2328C306.85 32.3186 306.829 31.5108 305.26 31.7C305.095 31.7216 304.705 31.3611 304.686 31.1582C304.613 30.4529 304.658 29.7377 304.658 29.056C306.781 28.6935 306.763 28.6935 306.798 26.8336C306.798 26.3431 306.914 25.4545 307.098 25.4309C308.164 25.2969 309.266 25.354 310.353 25.3993C310.459 25.3993 310.615 25.7678 310.629 25.9707C310.69 26.5607 310.69 27.1539 310.629 27.7439C310.488 28.7289 310.997 29.0107 312.099 28.926C312.991 28.8452 313.892 28.8984 314.841 28.8984Z" fill="white"/>
<path d="M344.946 30.8757C344.219 31.386 343.504 31.9416 342.712 32.4046C342.504 32.5267 341.988 32.4519 341.73 32.3159C339.883 31.3407 338.192 31.2895 336.823 32.2154C335.408 33.1848 334.936 35.0249 335.712 36.5203C336.656 38.2934 339.168 39.0362 341.117 37.8994C342.233 37.2532 342.884 37.4344 343.667 38.1398C344.061 38.4924 344.526 38.7899 344.946 39.1032C343.429 41.0418 339.902 41.8772 336.736 41.1029C333.433 40.2951 331.451 38.0097 331.451 34.9757C331.451 31.9416 333.409 29.67 336.731 28.8405C339.876 28.0584 343.412 28.8996 344.946 30.8757Z" fill="white"/>
<path d="M228.334 27.0381H220.461C217.673 27.0381 214.884 27.0164 212.096 27.0499C211.284 27.0499 211.01 26.8529 211.003 26.1632C210.984 23.8441 210.954 23.8441 213.773 23.8441C218.211 23.8441 222.651 23.8657 227.091 23.8263C228.07 23.8165 228.433 24.0549 228.344 24.8766C228.275 25.5406 228.334 26.2243 228.334 27.0381Z" fill="white"/>
<path d="M221.528 28.5721C221.528 31.748 221.665 34.8175 221.457 37.8713C221.38 38.9963 220.483 40.0838 219.841 41.4354C218.475 39.8277 217.687 38.3993 217.64 36.7582C217.581 34.7328 217.586 32.7035 217.64 30.6762C217.666 30.2985 217.853 29.9412 218.169 29.6694C219.077 28.956 220.281 28.563 221.528 28.5721V28.5721Z" fill="white"/>
<path d="M451 15.7397H642.486C642.732 15.7519 642.978 15.7519 643.224 15.7397C644.563 15.5986 644.997 16.0559 644.997 17.1773C644.944 23.5823 644.97 29.9872 644.97 36.3946C644.97 40.4886 644.929 44.585 645 48.6766C645.018 49.8101 644.554 50.1045 643.227 50.102C628.014 50.068 612.802 50.0607 597.589 50.0801H451V15.7397ZM521.065 28.0557C521.065 32.9209 521.048 37.5427 521.11 42.1646C521.11 42.4078 521.757 42.8141 522.129 42.836C523.5 42.9187 524.885 42.8214 526.265 42.8871C527.373 42.9381 527.724 42.6 527.701 41.7024C527.642 39.4742 527.677 37.246 527.686 35.0153C527.686 33.8209 528.227 32.8795 529.659 32.4246C532.023 31.6754 533.89 32.8576 533.967 35.2075C534.038 37.4357 534.011 39.6663 533.967 41.8946C533.967 42.6243 534.262 42.9089 535.166 42.8822C536.543 42.8384 537.923 42.8457 539.302 42.8822C540.124 42.9017 540.437 42.6389 540.428 41.9627C540.396 38.9633 540.514 35.9616 540.372 32.9622C540.203 29.4423 536.685 27.1581 532.469 27.8538C530.838 28.119 529.308 28.7928 527.94 29.2161C527.612 28.8804 527.255 28.1628 526.823 28.1336C524.965 27.9828 523.113 28.0557 521.065 28.0557ZM511.124 28.0338C509.301 28.0338 507.83 28.1093 506.376 28.012C504.867 27.9098 504.098 28.3331 503.596 29.5566C502.689 31.7605 501.528 33.8915 500.346 36.2948C500.004 35.6599 499.791 35.3023 499.614 34.9326C498.642 32.9427 497.693 30.9456 496.692 28.9655C496.521 28.6298 496.136 28.1336 495.829 28.1214C493.8 28.046 491.764 28.0825 489.525 28.0825C489.844 28.7344 490.03 29.1431 490.243 29.542C491.988 32.8455 493.739 36.1472 495.495 39.4474C496.086 40.5542 496.405 42.0746 497.451 42.6097C498.565 43.1814 500.406 42.763 501.906 42.8725C502.996 42.9503 503.475 42.5465 503.868 41.7802C505.324 38.9463 506.849 36.1391 508.344 33.3198C509.227 31.6632 510.093 29.9969 511.124 28.0338ZM459.736 28.0655C460.138 28.8512 460.395 29.3718 460.667 29.8826C462.362 33.0692 464.061 36.2543 465.763 39.4377C467.612 42.9041 467.612 42.8725 472.174 42.8822C473.243 42.8822 473.737 42.5587 474.141 41.7924C476.339 37.5962 478.597 33.4195 480.824 29.2331C480.993 28.9193 481.09 28.5812 481.306 28.0387C479.347 28.0387 477.592 28.063 475.84 28.0387C474.954 28.0192 474.511 28.3136 474.203 28.9752C473.344 30.8264 472.431 32.6581 471.518 34.4947C471.258 35.0275 470.992 35.5602 470.587 36.3727C469.299 33.709 468.2 31.3738 467.024 29.075C466.826 28.6882 466.324 28.1506 465.925 28.1311C463.981 28.012 462.037 28.0655 459.736 28.0655V28.0655ZM541.769 32.3565C542.073 32.4308 542.385 32.4797 542.7 32.5025C545.063 32.466 544.715 32.6898 544.727 34.2928C544.744 36.7619 544.768 39.2334 544.712 41.7C544.691 42.6073 545.075 42.9162 546.168 42.8749C547.448 42.8188 548.73 42.8188 550.009 42.8749C550.966 42.9114 551.318 42.6097 551.309 41.824C551.279 39.4766 551.309 37.1292 551.309 34.7696C551.309 32.7457 551.309 32.7457 553.755 32.4562C553.958 32.4088 554.156 32.3469 554.346 32.2714C554.346 31.24 554.302 30.155 554.361 29.0725C554.405 28.2576 553.956 27.9438 553.049 28.0387C551.595 28.1895 551.238 27.6617 551.276 26.5184C551.353 23.4144 551.294 23.4023 547.489 23.4193C544.239 23.4314 544.783 23.2076 544.715 25.6816C544.656 27.8368 544.715 27.8368 542.218 28.0922C542.06 28.1307 541.909 28.1846 541.766 28.2528L541.769 32.3565ZM565.88 36.774C565.475 36.8348 565.135 36.8665 564.81 36.9394C562.583 37.4454 562.447 37.6984 563.425 39.445C565.295 42.7703 570.613 44.2298 575.106 42.656C577.86 41.6829 579.49 39.6736 579.405 37.3433C579.322 35.1175 577.65 33.3368 574.746 32.5608C573.206 32.1473 571.596 31.9235 570.019 31.5878C567.951 31.1427 567.064 30.2013 567.23 28.6687C567.378 27.3041 568.757 26.2362 570.589 26.0513C573.401 25.7789 574.695 26.4405 576.356 29.0725C576.784 28.9728 577.242 28.8828 577.7 28.7563C579.337 28.2868 579.393 28.1628 578.637 26.8638C577.198 24.3874 574.04 23.142 570.196 23.5336C566.704 23.8888 563.9 26.2508 563.717 28.9923C563.543 31.583 565.581 33.5971 569.194 34.3634C570.527 34.6455 571.892 34.8256 573.212 35.1442C575.015 35.5796 576.034 36.684 575.936 37.949C575.836 39.3185 574.518 40.3548 572.598 40.5761C569.103 40.9848 567.256 39.968 565.88 36.774ZM616.399 31.004C613.164 28.6298 608.851 29.581 606.856 31.2813C604.014 33.7139 603.589 38.2944 606.298 40.8899C607.367 41.8786 608.744 42.6079 610.281 42.999C612.499 43.539 614.733 43.1717 616.455 41.5029L616.913 42.7873C617.333 42.8141 617.723 42.8141 618.095 42.8627C619.501 43.0476 619.926 42.6195 619.885 41.4032C619.764 37.9976 619.838 34.592 619.808 31.1864C619.808 30.6683 620.074 29.8875 619.002 29.9045C618.042 29.941 616.606 29.3182 616.411 31.004H616.399ZM596.572 36.4237C596.572 32.4125 593.281 29.5445 588.596 29.5007C584.011 29.4569 580.516 32.3954 580.471 36.3362C580.424 40.2283 583.913 43.2544 588.489 43.2836C593.066 43.3128 596.578 40.384 596.584 36.4237H596.572ZM488.585 28.0387C486.813 28.0387 485.096 28.0655 483.394 28.0387C482.414 28.0168 482.133 28.3793 482.136 29.1334C482.163 33.3368 482.163 37.5411 482.136 41.7462C482.136 42.5514 482.414 42.9357 483.48 42.8822C484.705 42.8104 485.934 42.8104 487.158 42.8822C488.443 42.9673 488.715 42.5076 488.703 41.5467C488.653 37.4649 488.683 33.383 488.677 29.2988C488.677 28.9363 488.627 28.5836 488.585 28.0387ZM511.901 28.0728C511.901 32.8941 511.901 37.5427 511.942 42.1816C511.942 42.4054 512.533 42.7995 512.876 42.8141C514.398 42.8907 515.924 42.8907 517.446 42.8141C517.801 42.7971 518.409 42.3276 518.412 42.0843C518.474 37.6716 518.468 33.2566 518.427 28.8439C518.427 28.586 517.999 28.1141 517.753 28.1141C515.854 28.046 513.951 28.0728 511.901 28.0728V28.0728ZM602.197 33.1957C602.197 30.3594 602.15 27.523 602.221 24.6818C602.248 23.7088 601.834 23.4168 600.694 23.4485C599.606 23.4801 598.835 23.4825 598.85 24.7061C598.915 30.3821 598.915 36.0532 598.85 41.7194C598.835 43.05 599.819 42.8044 600.788 42.8652C601.89 42.9357 602.236 42.6 602.215 41.6927C602.159 38.866 602.197 36.0297 602.197 33.1957V33.1957ZM625.741 30.9456C625.971 29.6515 624.671 29.8972 623.531 29.8777C622.154 29.8534 622.414 30.6537 622.414 31.3081C622.414 34.7891 622.444 38.2701 622.387 41.7511C622.37 42.7241 622.869 42.9308 623.891 42.87C624.801 42.8165 625.814 43.0598 625.758 41.7924C625.682 40.0142 625.803 38.2287 625.726 36.4408C625.628 34.2515 626.908 32.3541 630.175 32.5754C631.691 32.6776 631.224 31.6657 631.286 31.0308C631.357 30.3253 631.286 29.4691 630.042 29.7123C628.583 30.0115 627.185 30.5248 625.741 30.9456V30.9456ZM518.545 23.8279C518.537 23.0834 518.169 22.3722 517.524 21.8508C516.878 21.3294 516.008 21.0404 515.103 21.0475C514.199 21.0546 513.335 21.3572 512.702 21.8887C512.069 22.4201 511.718 23.137 511.727 23.8815C511.727 25.4505 513.354 26.8005 515.174 26.7689C516.092 26.7404 516.96 26.4162 517.59 25.8661C518.221 25.3161 518.564 24.5841 518.545 23.8279V23.8279ZM485.409 21.0913C484.518 21.0939 483.663 21.3861 483.032 21.9045C482.401 22.4229 482.044 23.1255 482.038 23.8596C482.021 25.4286 483.61 26.7786 485.439 26.7786C486.329 26.7442 487.172 26.4369 487.802 25.9171C488.432 25.3973 488.803 24.7025 488.842 23.969C488.848 23.5941 488.764 23.2219 488.594 22.8739C488.424 22.5259 488.173 22.209 487.854 21.9415C487.534 21.674 487.154 21.4612 486.735 21.3152C486.315 21.1693 485.865 21.0932 485.409 21.0913ZM557.563 37.3457C556.895 37.3375 556.24 37.4929 555.679 37.7921C555.119 38.0913 554.679 38.5208 554.415 39.0262C554.152 39.5316 554.077 40.0901 554.199 40.6307C554.322 41.1713 554.637 41.6697 555.104 42.0627C555.572 42.4557 556.17 42.7255 556.824 42.8379C557.478 42.9503 558.158 42.9002 558.777 42.694C559.396 42.4879 559.927 42.1348 560.302 41.6798C560.677 41.2248 560.88 40.6882 560.884 40.1383C560.892 39.7746 560.812 39.4132 560.649 39.0751C560.486 38.7371 560.243 38.4291 559.934 38.1692C559.625 37.9093 559.256 37.7026 558.849 37.5613C558.442 37.4199 558.005 37.3466 557.563 37.3457V37.3457ZM636.016 31.3275V29.6393L634.949 30.6391L634.063 29.761C633.389 31.2935 633.596 31.4394 636.016 31.3275V31.3275Z" fill="white"/>
<path d="M616.68 36.6267C616.411 37.3249 616.231 38.3175 615.673 39.1325C615.321 39.6481 614.806 40.0758 614.183 40.3702C613.56 40.6645 612.852 40.8145 612.134 40.8043C611.416 40.794 610.715 40.624 610.104 40.3121C609.494 40.0002 608.998 39.5581 608.668 39.0327C608.189 38.32 607.906 37.5296 607.839 36.717C607.772 35.9045 607.921 35.0897 608.278 34.3301C608.555 33.6064 609.12 32.9806 609.882 32.553C610.643 32.1255 611.557 31.9211 612.476 31.9727C614.358 32.0384 615.726 32.9458 616.278 34.5588C616.457 35.2417 616.591 35.9319 616.68 36.6267Z" fill="white"/>
<path d="M593.21 36.3922C593.21 39.1486 591.231 40.9246 588.309 40.7713C587.869 40.7476 587.436 40.6731 587.021 40.5499C584.454 39.7958 583.225 37.1853 584.217 34.6236C584.385 34.1457 584.667 33.7004 585.047 33.314C585.428 32.9276 585.898 32.608 586.432 32.3741C586.965 32.1402 587.549 31.9968 588.151 31.9524C588.752 31.9079 589.359 31.9633 589.934 32.1154C592.029 32.6384 593.21 34.1735 593.21 36.3922Z" fill="white"/>
<path d="M1002.29 34.9367V33.5987H1116.62L1115.4 31.6132L1123 34.1562L1115.42 36.7149L1116.49 34.9406L1002.29 34.9367Z" fill="white"/>
<path d="M976 16.9274C979.112 16.9274 982.162 16.7826 985.19 16.9743C987.366 17.1132 988.397 18.1205 988.668 19.5914C988.931 21.0115 988.074 22.2516 986.274 23.0731C986.104 23.1494 985.944 23.2413 985.57 23.4349C986.121 23.6168 986.497 23.7459 986.877 23.8633C988.452 24.3503 989.51 25.1953 989.675 26.6251C989.85 28.1508 989.415 29.522 987.739 30.363C986.841 30.8129 985.798 31.2354 984.778 31.3195C981.905 31.5542 979.011 31.607 976.01 31.7381L976 16.9274ZM979.471 27.2002C979.471 27.7537 979.392 28.319 979.504 28.8569C979.56 29.121 979.983 29.5454 980.223 29.5356C981.643 29.5005 983.058 29.3815 984.457 29.1797C985.508 29.0114 986.001 28.319 986.047 27.4427C986.092 26.5665 985.683 25.8232 984.629 25.4868C983.897 25.254 983.107 25.0212 982.336 25.0036C978.676 24.9215 979.466 24.7396 979.471 27.2002ZM979.402 20.9274C979.402 21.4125 979.33 21.9054 979.43 22.3826C979.483 22.6252 979.866 23.0222 980.06 23.0066C981.307 22.9127 982.628 22.899 983.758 22.5195C985.386 21.9738 985.518 19.9768 984.072 19.2433C983.522 18.9874 982.911 18.8294 982.281 18.7797C979.634 18.5156 979.282 18.7914 979.402 20.9274Z" fill="white"/>
<path d="M1051.83 16.6637C1051.61 17.763 1051.46 18.4886 1051.34 19.0989C1049.56 19.0206 1047.92 18.8916 1046.27 18.9033C1045.27 18.9033 1044.2 19.0989 1043.98 20.1199C1043.74 21.1742 1044.67 21.6378 1045.63 22.0172C1046.85 22.4984 1048.12 22.8994 1049.32 23.4079C1052.1 24.5913 1053.23 26.469 1052.62 28.6891C1052.23 30.0993 1051.14 30.9776 1049.55 31.4274C1046.67 32.247 1043.75 32.1472 1040.84 31.623C1040.68 31.5606 1040.55 31.4676 1040.46 31.3526C1040.36 31.2376 1040.3 31.1045 1040.29 30.9658C1040.38 30.4368 1040.51 29.9139 1040.7 29.401C1042.89 29.4675 1044.9 29.579 1046.9 29.5634C1047.9 29.5634 1048.96 29.3326 1049.17 28.3213C1049.38 27.3433 1048.67 26.7077 1047.7 26.2871C1046.33 25.7003 1044.9 25.1918 1043.53 24.5991C1041.86 23.8793 1040.67 22.8387 1040.49 21.2133C1040.2 18.7194 1042 16.9845 1045.42 16.7145C1047.46 16.5307 1049.52 16.6637 1051.83 16.6637Z" fill="white"/>
<path d="M1069.33 31.5917C1068.28 31.5917 1067.36 31.6387 1066.46 31.5643C1066.2 31.5428 1065.85 31.2123 1065.74 30.9658C1065.44 30.2284 1065.22 29.4656 1065 28.7067C1064.85 28.1766 1064.48 27.9614 1063.82 27.9751C1062.62 27.9986 1061.42 28.0025 1060.24 27.9751C1059.52 27.9575 1059.15 28.2157 1058.99 28.779C1058.81 29.4441 1058.48 30.0856 1058.36 30.7565C1058.23 31.4274 1057.92 31.6621 1057.11 31.6054C1056.42 31.5585 1055.72 31.5956 1054.85 31.5956C1055.11 30.9208 1055.28 30.3947 1055.51 29.8861C1057.01 26.5609 1058.54 23.2495 1060 19.9106C1060.31 19.1889 1060.96 19.2554 1061.53 19.3434C1062.58 19.5038 1064.11 18.7175 1064.62 19.8558C1066.26 23.4822 1067.67 27.1732 1069.17 30.8426C1069.24 31.0892 1069.3 31.3394 1069.33 31.5917ZM1062.17 21.0998L1061.92 21.0881C1061.25 22.7781 1060.57 24.47 1059.85 26.2656H1064.16L1062.17 21.0998Z" fill="white"/>
<path d="M1008.28 19.3386C1008.28 21.6857 1008.25 23.8373 1008.3 25.9772C1008.3 26.7559 1008.42 27.5315 1008.65 28.2872C1009.04 29.4764 1010.21 30.1102 1011.68 30.0867C1013.23 30.0632 1014.44 29.4842 1014.64 28.2461C1014.95 26.2901 1014.94 24.3009 1015.05 22.3254C1015.05 21.9986 1015.03 21.6721 1014.98 21.3474C1014.8 19.1821 1014.97 19.0686 1017.84 19.4383C1017.84 21.1283 1017.89 22.8417 1017.82 24.5493C1017.76 25.8774 1017.73 27.2368 1017.35 28.518C1016.64 30.963 1014.46 32.0114 1010.86 31.8666C1007.81 31.7454 1005.93 30.5326 1005.63 28.0505C1005.31 25.3708 1005.37 22.6598 1005.32 19.9625C1005.36 19.8261 1005.43 19.6997 1005.55 19.595C1005.66 19.4903 1005.81 19.4108 1005.97 19.364C1006.7 19.2818 1007.45 19.3386 1008.28 19.3386Z" fill="white"/>
<path d="M1082.45 21.4489C1081.46 21.3374 1080.68 21.2338 1079.89 21.1633C1076.78 20.8856 1074.46 22.5325 1074.32 25.1007C1074.16 28.1129 1076.56 30.1863 1079.97 30.0083C1080.79 29.9672 1081.07 29.7736 1081.01 29.0675C1080.91 27.9702 1080.98 26.8611 1080.98 25.5878C1081.67 25.5563 1082.36 25.5661 1083.05 25.6171C1083.21 25.6647 1083.36 25.7452 1083.48 25.8512C1083.59 25.9572 1083.67 26.0852 1083.71 26.2235C1083.77 27.7198 1083.79 29.22 1083.71 30.7222C1083.71 30.9706 1083.26 31.3912 1082.99 31.4166C1081.14 31.577 1079.25 31.8821 1077.44 31.7061C1073.66 31.3403 1071.43 29.177 1071.23 26.0885C1071.03 23 1073.27 20.1482 1076.78 19.4773C1078.41 19.1643 1080.17 19.2817 1081.87 19.2543C1082.56 19.2406 1082.86 19.5751 1082.72 20.1541C1082.62 20.5531 1082.55 20.9658 1082.45 21.4489Z" fill="white"/>
<path d="M1029.83 24.3126V26.0143C1028.52 26.0143 1027.26 26.0651 1026 25.9967C1025.02 25.9439 1024.58 26.1923 1024.67 27.0157C1025.02 30.3722 1024.05 29.672 1028.05 29.7385C1029.15 29.7561 1030.26 29.7385 1031.46 29.7385V31.5301H1021.91C1021.88 31.223 1021.83 30.9433 1021.83 30.6617C1021.83 27.2113 1021.86 23.759 1021.81 20.3067C1021.8 19.5243 1022.08 19.2935 1023 19.3072C1025.62 19.3463 1028.24 19.3209 1031 19.3209C1031 19.7845 1031 20.1307 1031 20.4749C1031 21.0617 1030.67 21.2691 1029.96 21.2339C1028.52 21.1634 1027.08 21.1537 1025.66 21.1048C1024.9 21.0774 1024.59 21.3219 1024.62 21.9673C1024.78 24.8661 1024.23 24.2891 1027.43 24.3145C1028.19 24.3165 1028.94 24.3126 1029.83 24.3126Z" fill="white"/>
<path d="M1096.45 21.1101C1094.74 21.1101 1093.1 21.1414 1091.48 21.0984C1090.54 21.073 1090.27 21.3546 1090.29 22.1214C1090.35 24.3434 1090.31 24.3414 1092.99 24.316C1093.78 24.316 1094.57 24.316 1095.48 24.316C1095.51 24.6074 1095.53 24.8871 1095.58 25.1668C1095.69 25.8671 1095.4 26.1918 1094.47 26.1174C1093.4 26.0333 1092.31 26.0451 1091.25 26.0001C1090.59 25.9747 1090.32 26.1957 1090.34 26.7434C1090.47 30.4089 1089.76 29.6773 1093.83 29.736C1094.9 29.7497 1095.97 29.736 1097.18 29.736C1097.18 30.1155 1097.28 30.5732 1097.14 30.98C1097.06 31.2265 1096.62 31.5668 1096.34 31.5668C1093.63 31.6118 1090.93 31.5668 1088.22 31.604C1087.23 31.604 1087.4 31.0895 1087.4 30.6103C1087.45 27.7781 1087.5 24.9478 1087.53 22.1155C1087.53 21.4661 1087.47 20.8148 1087.4 20.1595C1087.34 19.6099 1087.51 19.3048 1088.29 19.3106C1090.76 19.3361 1093.23 19.3106 1095.69 19.3282C1096.71 19.34 1096.81 19.6197 1096.45 21.1101Z" fill="white"/>
<path d="M1063.31 38.3426C1062.99 38.7337 1062.82 38.9293 1062.67 39.1406C1060.89 41.6834 1059.14 44.2437 1057.33 46.7689C1057.13 47.0486 1056.63 47.1816 1056.1 47.4731C1055.74 43.7156 1055.4 40.2359 1055.06 36.6741H1056.81C1056.94 39.5357 1057.05 42.3464 1057.19 45.1396L1057.39 45.1826L1057.94 44.3787C1059.63 41.9416 1061.29 39.4888 1063.04 37.0849C1063.24 36.8188 1063.87 36.6741 1064.31 36.6604C1064.48 36.6604 1064.83 37.1455 1064.85 37.4213C1065 39.8936 1065.1 42.368 1065.22 44.8423C1065.24 44.9952 1065.26 45.1473 1065.3 45.298L1065.63 45.5112C1065.64 45.3723 1065.68 45.2354 1065.73 45.1044C1067.46 42.5342 1069.24 39.9875 1070.9 37.3919C1071.39 36.6096 1071.96 36.4668 1073.03 36.7543C1072.53 37.4682 1072.07 38.147 1071.59 38.8022C1069.59 41.4663 1067.59 44.1303 1065.55 46.7728C1065.33 47.0545 1064.83 47.1895 1064.25 47.5063C1063.92 44.3415 1063.63 41.4526 1063.31 38.3426Z" fill="white"/>
<path d="M1002.7 31.559H993.465C993.434 31.2558 993.379 30.9722 993.376 30.7042C993.376 27.2225 993.407 23.7429 993.359 20.2632C993.359 19.5199 993.623 19.3067 994.501 19.3106C996.416 19.3204 996.416 19.2871 996.38 20.805C996.323 23.471 996.292 26.1389 996.186 28.803C996.16 29.5326 996.426 29.8005 997.326 29.7614C998.554 29.7066 999.789 29.7379 1001.02 29.7125C1003.09 29.6695 1003.13 29.7066 1002.7 31.559Z" fill="white"/>
<path d="M1027.04 40.222C1026.94 43.733 1023.73 46.8978 1019.62 47.5511C1016.4 48.0616 1014.01 46.3932 1014.14 43.7272C1014.3 40.2299 1017.51 37.0905 1021.54 36.49C1024.74 36.0049 1027.11 37.6225 1027.04 40.222ZM1019.31 46.6924C1019.97 46.4968 1020.69 46.3893 1021.29 46.1056C1023.73 44.932 1024.97 43.1286 1025.29 40.8597C1025.46 39.7115 1025.14 38.7199 1023.95 38.0157C1022.77 37.3115 1021.44 37.2666 1020.12 37.8318C1017.24 39.0778 1015.94 41.157 1015.81 43.7213C1015.75 45.3937 1017.32 46.5868 1019.31 46.6924Z" fill="white"/>
<path d="M1095.16 41.9407C1096.93 43.437 1096.62 45.3363 1096.99 47.2023H1095.27C1095.13 46.2478 1095.03 45.3089 1094.83 44.3896C1094.51 42.9598 1092.05 42.06 1090.54 42.8072C1090.31 42.9187 1090.18 43.2238 1090.1 43.4605C1089.78 44.4013 1089.41 45.3382 1089.24 46.2986C1089.07 47.2981 1088.45 47.4448 1087.31 47.1847C1087.41 46.8541 1087.5 46.5509 1087.6 46.2497C1088.55 43.3275 1089.51 40.4092 1090.45 37.4791C1090.63 36.8923 1090.87 36.5735 1091.7 36.6126C1093.29 36.685 1094.9 36.5676 1096.46 36.7339C1098.35 36.9295 1099.03 37.9192 1098.22 39.3295C1097.76 40.1392 1096.84 40.7827 1096.09 41.4713C1095.87 41.6727 1095.51 41.7725 1095.16 41.9407ZM1090.63 41.8527C1092.13 41.6571 1093.43 41.6571 1094.55 41.2991C1095.34 41.0429 1096.09 40.3759 1096.49 39.7343C1097.13 38.7075 1096.49 37.8566 1095.08 37.6767C1094.22 37.5941 1093.35 37.5889 1092.48 37.661C1092.34 37.6816 1092.2 37.7303 1092.08 37.8031C1091.97 37.876 1091.87 37.9708 1091.81 38.0796C1091.41 39.2297 1091.08 40.3916 1090.63 41.8527Z" fill="white"/>
<path d="M1081.93 36.7321C1082.43 40.0083 1082.92 43.2318 1083.4 46.4572C1083.41 46.7094 1083.4 46.9617 1083.36 47.2122H1081.67C1081.58 46.332 1081.45 45.4675 1081.42 44.601C1081.39 44.024 1081.13 43.7795 1080.42 43.7893C1079.03 43.8088 1077.63 43.7501 1076.24 43.8225C1075.76 43.883 1075.32 44.093 1075.02 44.4093C1074.45 44.9974 1073.98 45.6446 1073.63 46.334C1073.18 47.2376 1072.48 47.4958 1071.23 47.1946C1071.47 46.8582 1071.69 46.5355 1071.95 46.2342C1074.44 43.2116 1076.93 40.1922 1079.42 37.1761C1079.93 36.5326 1080.2 36.4895 1081.93 36.7321ZM1080.51 37.89L1080.19 37.8352L1076.15 42.8543C1077.87 42.8543 1079.28 42.8739 1080.68 42.8308C1080.85 42.8308 1081.14 42.467 1081.12 42.2929C1080.95 40.822 1080.72 39.357 1080.51 37.89Z" fill="white"/>
<path d="M1112.11 36.63C1112.17 37.5102 1111.76 37.7547 1110.89 37.7136C1109.62 37.653 1108.35 37.6921 1107.08 37.6491C1106.33 37.6236 1105.88 37.7938 1105.73 38.451C1105.53 39.3351 1105.23 40.2114 1104.95 41.1894H1109.44C1109.52 42.1674 1109.47 42.2182 1108.4 42.2143C1107.45 42.2143 1106.49 42.2143 1105.53 42.1772C1104.89 42.1537 1104.49 42.2965 1104.33 42.8715C1104.05 43.9434 1103.7 44.9996 1103.33 46.1967H1109.55C1109.63 46.9947 1109.32 47.3292 1108.36 47.3116C1106.14 47.2705 1103.91 47.2979 1101.56 47.2979C1101.53 47.0841 1101.53 46.8682 1101.56 46.6544C1102.56 43.5424 1103.56 40.4305 1104.61 37.3302C1104.7 37.0584 1105.11 36.6691 1105.39 36.6613C1107.61 36.6065 1109.83 36.63 1112.11 36.63Z" fill="white"/>
<path d="M1011.57 36.7335C1011.43 37.6293 1011.09 37.9462 1009.98 37.7428C1008.93 37.5472 1007.77 37.6156 1006.68 37.7037C1005.68 37.7839 1005.01 38.3354 1004.83 39.155C1004.65 39.9746 1005.38 40.3169 1006.08 40.6455C1006.7 40.9369 1007.36 41.1814 1007.98 41.4728C1010.51 42.6699 1010.72 44.9936 1008.43 46.5193C1006.93 47.5149 1005.13 47.5911 1003.33 47.5833C1002.47 47.5833 1001.62 47.4053 1000.75 47.3056C1000.91 46.3178 1001.38 46.1574 1002.48 46.2865C1003.85 46.4508 1005.31 46.3511 1006.7 46.2004C1007.67 46.0948 1008.28 45.4572 1008.42 44.6357C1008.56 43.8141 1007.9 43.376 1007.16 43.0102C1006.42 42.6445 1005.69 42.3648 1004.97 42.0127C1003.07 41.0758 1002.66 39.6655 1004.01 38.2357C1004.61 37.6316 1005.37 37.1538 1006.24 36.843C1007.95 36.2465 1009.74 36.3951 1011.57 36.7335Z" fill="white"/>
<path d="M1040.51 36.61C1040.57 37.453 1040.24 37.7542 1039.35 37.7132C1038 37.6506 1036.64 37.6975 1035.29 37.6467C1034.53 37.6173 1034.11 37.8168 1033.96 38.4564C1033.72 39.4344 1033.43 40.3987 1033.13 41.4784H1037.48C1037.63 42.296 1037.34 42.6266 1036.36 42.566C1035.45 42.5092 1034.53 42.5757 1033.62 42.5444C1032.94 42.521 1032.62 42.7498 1032.47 43.2897C1032.2 44.3068 1031.85 45.3082 1031.55 46.3175C1031.24 47.3601 1031.24 47.362 1029.72 47.186C1029.8 46.8828 1029.86 46.5835 1029.96 46.2901C1030.91 43.3366 1031.9 40.389 1032.81 37.4276C1033 36.8017 1033.32 36.5826 1034.1 36.5963C1036.23 36.6354 1038.36 36.61 1040.51 36.61Z" fill="white"/>
<path d="M1043.86 47.1674C1044.88 44.0378 1045.91 40.9219 1046.98 37.6613H1042.96L1042.72 37.3777C1043.04 37.1234 1043.37 36.6559 1043.7 36.6501C1046.72 36.5914 1049.74 36.6168 1052.81 36.6168C1052.95 37.3816 1052.68 37.7435 1051.77 37.6554H1051.65C1048.54 37.6554 1048.51 37.6554 1047.69 40.1767C1047.01 42.2207 1046.32 44.2588 1045.75 46.3224C1045.5 47.275 1044.95 47.4862 1043.86 47.1674Z" fill="white"/>
<defs>
<filter id="filter0_f_156_211" x="1209" y="0" width="184.999" height="65.0287" filterUnits="userSpaceOnUse" color-interpolation-filters="sRGB">
<feFlood flood-opacity="0" result="BackgroundImageFix"/>
<feBlend mode="normal" in="SourceGraphic" in2="BackgroundImageFix" result="shape"/>
<feGaussianBlur stdDeviation="2" result="effect1_foregroundBlur_156_211"/>
</filter>
<filter id="filter1_f_156_211" x="-27" y="6.30859" width="72.3706" height="52.2493" filterUnits="userSpaceOnUse" color-interpolation-filters="sRGB">
<feFlood flood-opacity="0" result="BackgroundImageFix"/>
<feBlend mode="normal" in="SourceGraphic" in2="BackgroundImageFix" result="shape"/>
<feGaussianBlur stdDeviation="2" result="effect1_foregroundBlur_156_211"/>
</filter>
<filter id="filter2_f_156_211" x="89.1714" y="22.6719" width="20.8765" height="20.8627" filterUnits="userSpaceOnUse" color-interpolation-filters="sRGB">
<feFlood flood-opacity="0" result="BackgroundImageFix"/>
<feBlend mode="normal" in="SourceGraphic" in2="BackgroundImageFix" result="shape"/>
<feGaussianBlur stdDeviation="2" result="effect1_foregroundBlur_156_211"/>
</filter>
<filter id="filter3_f_156_211" x="45.3467" y="6.71875" width="22.5103" height="20.5295" filterUnits="userSpaceOnUse" color-interpolation-filters="sRGB">
<feFlood flood-opacity="0" result="BackgroundImageFix"/>
<feBlend mode="normal" in="SourceGraphic" in2="BackgroundImageFix" result="shape"/>
<feGaussianBlur stdDeviation="2" result="effect1_foregroundBlur_156_211"/>
</filter>
<filter id="filter4_f_156_211" x="55.9392" y="22.9512" width="23.3967" height="20.4692" filterUnits="userSpaceOnUse" color-interpolation-filters="sRGB">
<feFlood flood-opacity="0" result="BackgroundImageFix"/>
<feBlend mode="normal" in="SourceGraphic" in2="BackgroundImageFix" result="shape"/>
<feGaussianBlur stdDeviation="2" result="effect1_foregroundBlur_156_211"/>
</filter>
<filter id="filter5_f_156_211" x="105.843" y="23.1915" width="19.2002" height="19.991" filterUnits="userSpaceOnUse" color-interpolation-filters="sRGB">
<feFlood flood-opacity="0" result="BackgroundImageFix"/>
<feBlend mode="normal" in="SourceGraphic" in2="BackgroundImageFix" result="shape"/>
<feGaussianBlur stdDeviation="2" result="effect1_foregroundBlur_156_211"/>
</filter>
<filter id="filter6_f_156_211" x="62.5342" y="38.6035" width="17.2607" height="19.9857" filterUnits="userSpaceOnUse" color-interpolation-filters="sRGB">
<feFlood flood-opacity="0" result="BackgroundImageFix"/>
<feBlend mode="normal" in="SourceGraphic" in2="BackgroundImageFix" result="shape"/>
<feGaussianBlur stdDeviation="2" result="effect1_foregroundBlur_156_211"/>
</filter>
<filter id="filter7_f_156_211" x="74.4521" y="23.1738" width="18.8059" height="20.2429" filterUnits="userSpaceOnUse" color-interpolation-filters="sRGB">
<feFlood flood-opacity="0" result="BackgroundImageFix"/>
<feBlend mode="normal" in="SourceGraphic" in2="BackgroundImageFix" result="shape"/>
<feGaussianBlur stdDeviation="2" result="effect1_foregroundBlur_156_211"/>
</filter>
<filter id="filter8_f_156_211" x="62.7744" y="6.99414" width="16.0215" height="20.0481" filterUnits="userSpaceOnUse" color-interpolation-filters="sRGB">
<feFlood flood-opacity="0" result="BackgroundImageFix"/>
<feBlend mode="normal" in="SourceGraphic" in2="BackgroundImageFix" result="shape"/>
<feGaussianBlur stdDeviation="2" result="effect1_foregroundBlur_156_211"/>
</filter>
<filter id="filter9_f_156_211" x="73.8408" y="38.3086" width="17.252" height="20.4481" filterUnits="userSpaceOnUse" color-interpolation-filters="sRGB">
<feFlood flood-opacity="0" result="BackgroundImageFix"/>
<feBlend mode="normal" in="SourceGraphic" in2="BackgroundImageFix" result="shape"/>
<feGaussianBlur stdDeviation="2" result="effect1_foregroundBlur_156_211"/>
</filter>
<filter id="filter10_f_156_211" x="46.731" y="23.1641" width="15.1487" height="20.0112" filterUnits="userSpaceOnUse" color-interpolation-filters="sRGB">
<feFlood flood-opacity="0" result="BackgroundImageFix"/>
<feBlend mode="normal" in="SourceGraphic" in2="BackgroundImageFix" result="shape"/>
<feGaussianBlur stdDeviation="2" result="effect1_foregroundBlur_156_211"/>
</filter>
<filter id="filter11_f_156_211" x="46.7019" y="38.6155" width="15.2056" height="19.9583" filterUnits="userSpaceOnUse" color-interpolation-filters="sRGB">
<feFlood flood-opacity="0" result="BackgroundImageFix"/>
<feBlend mode="normal" in="SourceGraphic" in2="BackgroundImageFix" result="shape"/>
<feGaussianBlur stdDeviation="2" result="effect1_foregroundBlur_156_211"/>
</filter>
<filter id="filter12_f_156_211" x="72.377" y="6.99219" width="16.7214" height="19.9525" filterUnits="userSpaceOnUse" color-interpolation-filters="sRGB">
<feFlood flood-opacity="0" result="BackgroundImageFix"/>
<feBlend mode="normal" in="SourceGraphic" in2="BackgroundImageFix" result="shape"/>
<feGaussianBlur stdDeviation="2" result="effect1_foregroundBlur_156_211"/>
</filter>
<filter id="filter13_f_156_211" x="84.6807" y="38.6328" width="16.7566" height="19.8292" filterUnits="userSpaceOnUse" color-interpolation-filters="sRGB">
<feFlood flood-opacity="0" result="BackgroundImageFix"/>
<feBlend mode="normal" in="SourceGraphic" in2="BackgroundImageFix" result="shape"/>
<feGaussianBlur stdDeviation="2" result="effect1_foregroundBlur_156_211"/>
</filter>
<filter id="filter14_f_156_211" x="56.7605" y="38.6366" width="9.9751" height="19.9275" filterUnits="userSpaceOnUse" color-interpolation-filters="sRGB">
<feFlood flood-opacity="0" result="BackgroundImageFix"/>
<feBlend mode="normal" in="SourceGraphic" in2="BackgroundImageFix" result="shape"/>
<feGaussianBlur stdDeviation="2" result="effect1_foregroundBlur_156_211"/>
</filter>
</defs>
</svg>
