<svg width="16" height="21" viewBox="0 0 16 21" fill="none" xmlns="http://www.w3.org/2000/svg">
<g filter="url(#filter0_f_156_239)">
<path d="M11.5397 10.38H9.28195C6.61458 10.38 6.6178 10.38 6.64038 12.6114C6.64038 13.7363 6.64038 14.8612 6.64038 16.0571L5.0277 16.1753C4.90369 15.9261 4.81601 15.6659 4.76644 15.4C4.74709 11.9833 4.76644 8.59018 4.73096 5.18657C4.73096 4.36918 5.16316 4.13527 6.09852 4.16681C7.54671 4.21412 9.00135 4.17995 10.4431 4.19046C11.1269 4.19046 11.9171 4.07745 11.8784 4.97894C11.8397 5.88044 11.0107 5.69383 10.356 5.71486C9.55231 5.74771 8.74711 5.74771 7.94343 5.71486C6.67586 5.64915 6.51782 6.28256 6.65328 7.0579C6.77262 7.77804 6.14368 8.8714 7.89505 8.85826C8.70139 8.85826 9.50773 8.89505 10.3076 8.85826C11.5494 8.79518 12.0332 9.17365 11.5397 10.38Z" fill="white"/>
</g>
<defs>
<filter id="filter0_f_156_239" x="0.730957" y="0.164062" width="15.1487" height="20.0112" filterUnits="userSpaceOnUse" color-interpolation-filters="sRGB">
<feFlood flood-opacity="0" result="BackgroundImageFix"/>
<feBlend mode="normal" in="SourceGraphic" in2="BackgroundImageFix" result="shape"/>
<feGaussianBlur stdDeviation="2" result="effect1_foregroundBlur_156_239"/>
</filter>
</defs>
</svg>
