<svg width="25" height="14" viewBox="0 0 25 14" fill="none" xmlns="http://www.w3.org/2000/svg">
<path d="M0.446289 0.94276H3.98514C4.07007 1.25799 4.15029 1.56337 4.28948 2.08743C5.6484 0.995954 7.18662 0.444304 8.97491 0.554634C10.7632 0.664964 12.2023 1.30921 13.4056 2.5386C14.7763 1.23237 16.3947 0.534931 18.4001 0.540842C21.7926 0.540842 24.074 2.34356 24.1471 5.15894C24.2085 7.52316 24.1471 9.87358 24.192 12.2319C24.2038 12.8742 23.9277 13.0968 23.1681 13.0869C19.8345 13.0416 20.4196 13.3904 20.3677 10.8429C20.337 9.3042 20.403 7.76549 20.3299 6.22875C20.245 4.47332 19.1291 3.52369 17.3408 3.5631C15.5525 3.6025 14.2997 4.67231 14.2738 6.32135C14.2336 8.29153 14.236 10.2499 14.2738 12.2142C14.2856 12.8466 14.0378 13.0889 13.2593 13.0771C9.78649 13.0219 10.4801 13.4317 10.4164 10.7956C10.381 9.29041 10.4329 7.78323 10.3857 6.27801C10.3315 4.53046 9.25802 3.5631 7.46501 3.56113C5.57762 3.56113 4.35318 4.61321 4.31779 6.36075C4.28004 8.29153 4.28004 10.2236 4.31779 12.157C4.32959 12.8269 4.08187 13.0692 3.2467 13.083C0.460443 13.1303 0.460446 13.1559 0.462805 10.8587V0.94276H0.446289Z" fill="white"/>
</svg>
